<?xml version="1.0" encoding="UTF-8" standalone="no"?>
<!DOCTYPE svg PUBLIC "-//W3C//DTD SVG 1.1//EN"
 "http://www.w3.org/Graphics/SVG/1.1/DTD/svg11.dtd">
<!-- Generated by graphviz version 2.42.4 (0)
 -->
<!-- Title: architecture Pages: 1 -->
<svg width="781pt" height="343pt"
 viewBox="0.00 0.00 781.00 343.12" xmlns="http://www.w3.org/2000/svg" xmlns:xlink="http://www.w3.org/1999/xlink">
<g id="graph0" class="graph" transform="scale(1 1) rotate(0) translate(4 339.12)">
<title>architecture</title>
<polygon fill="white" stroke="transparent" points="-4,4 -4,-339.12 777,-339.12 777,4 -4,4"/>
<g id="clust1" class="cluster">
<title>cluster_model</title>
<polygon fill="none" stroke="blue" points="163,-132.25 163,-209.25 490,-209.25 490,-132.25 163,-132.25"/>
<text text-anchor="middle" x="326.5" y="-194.05" font-family="Times,serif" font-size="14.00">Model Layer</text>
</g>
<g id="clust2" class="cluster">
<title>cluster_view</title>
<polygon fill="none" stroke="green" points="509,-132.25 509,-327.12 765,-327.12 765,-132.25 509,-132.25"/>
<text text-anchor="middle" x="637" y="-311.92" font-family="Times,serif" font-size="14.00">View Layer</text>
</g>
<g id="clust3" class="cluster">
<title>cluster_external</title>
<polygon fill="none" stroke="red" points="8,-8 8,-99.25 568,-99.25 568,-8 8,-8"/>
<text text-anchor="middle" x="288" y="-84.05" font-family="Times,serif" font-size="14.00">External Systems</text>
</g>
<!-- UniversalCalendarApplet -->
<g id="node1" class="node">
<title>UniversalCalendarApplet</title>
<ellipse fill="lightyellow" stroke="black" cx="338" cy="-277.12" rx="139.1" ry="26.74"/>
<text text-anchor="middle" x="338" y="-280.92" font-family="Times,serif" font-size="14.00">UniversalCalendarApplet</text>
<text text-anchor="middle" x="338" y="-265.92" font-family="Times,serif" font-size="14.00">(Main Controller)</text>
</g>
<!-- EventManager -->
<g id="node2" class="node">
<title>EventManager</title>
<polygon fill="lightblue" stroke="black" points="482.5,-178.25 323.5,-178.25 323.5,-140.25 482.5,-140.25 482.5,-178.25"/>
<text text-anchor="middle" x="403" y="-163.05" font-family="Times,serif" font-size="14.00">EventManager</text>
<text text-anchor="middle" x="403" y="-148.05" font-family="Times,serif" font-size="14.00">(Data Management)</text>
</g>
<!-- UniversalCalendarApplet&#45;&gt;EventManager -->
<g id="edge1" class="edge">
<title>UniversalCalendarApplet&#45;&gt;EventManager</title>
<path fill="none" stroke="black" d="M352.59,-250.12C363.07,-231.42 377.18,-206.28 387.8,-187.34"/>
<polygon fill="black" stroke="black" points="390.87,-189.03 392.71,-178.6 384.76,-185.61 390.87,-189.03"/>
</g>
<!-- CalendarLogic -->
<g id="node3" class="node">
<title>CalendarLogic</title>
<polygon fill="lightblue" stroke="black" points="305,-178.25 171,-178.25 171,-140.25 305,-140.25 305,-178.25"/>
<text text-anchor="middle" x="238" y="-163.05" font-family="Times,serif" font-size="14.00">CalendarLogic</text>
<text text-anchor="middle" x="238" y="-148.05" font-family="Times,serif" font-size="14.00">(Business Logic)</text>
</g>
<!-- UniversalCalendarApplet&#45;&gt;CalendarLogic -->
<g id="edge2" class="edge">
<title>UniversalCalendarApplet&#45;&gt;CalendarLogic</title>
<path fill="none" stroke="black" d="M334.47,-250.07C332.02,-239.17 327.91,-226.83 321,-217.25 311.43,-203.99 297.78,-192.82 284.3,-183.97"/>
<polygon fill="black" stroke="black" points="285.86,-180.81 275.52,-178.49 282.15,-186.75 285.86,-180.81"/>
</g>
<!-- CalendarView -->
<g id="node4" class="node">
<title>CalendarView</title>
<polygon fill="lightblue" stroke="black" points="633,-296.12 517,-296.12 517,-258.12 633,-258.12 633,-296.12"/>
<text text-anchor="middle" x="575" y="-280.92" font-family="Times,serif" font-size="14.00">CalendarView</text>
<text text-anchor="middle" x="575" y="-265.92" font-family="Times,serif" font-size="14.00">(Grid UI)</text>
</g>
<!-- UniversalCalendarApplet&#45;&gt;CalendarView -->
<g id="edge3" class="edge">
<title>UniversalCalendarApplet&#45;&gt;CalendarView</title>
<path fill="none" stroke="black" d="M477.33,-277.12C487.05,-277.12 496.77,-277.12 506.5,-277.12"/>
<polygon fill="black" stroke="black" points="506.63,-280.62 516.63,-277.12 506.63,-273.62 506.63,-280.62"/>
</g>
<!-- EventListView -->
<g id="node5" class="node">
<title>EventListView</title>
<polygon fill="lightblue" stroke="black" points="714,-178.25 594,-178.25 594,-140.25 714,-140.25 714,-178.25"/>
<text text-anchor="middle" x="654" y="-163.05" font-family="Times,serif" font-size="14.00">EventListView</text>
<text text-anchor="middle" x="654" y="-148.05" font-family="Times,serif" font-size="14.00">(Sidebar)</text>
</g>
<!-- UniversalCalendarApplet&#45;&gt;EventListView -->
<g id="edge4" class="edge">
<title>UniversalCalendarApplet&#45;&gt;EventListView</title>
<path fill="none" stroke="black" d="M364.65,-250.55C379.02,-238.34 397.72,-224.77 417,-217.25 449.05,-204.74 460.28,-216.1 494,-209.25 527.64,-202.42 564.3,-191.46 594.04,-181.63"/>
<polygon fill="black" stroke="black" points="595.47,-184.84 603.84,-178.35 593.25,-178.21 595.47,-184.84"/>
</g>
<!-- GSettings -->
<g id="node8" class="node">
<title>GSettings</title>
<path fill="lightblue" stroke="black" d="M141.5,-63.6C141.5,-66.24 113.49,-68.38 79,-68.38 44.51,-68.38 16.5,-66.24 16.5,-63.6 16.5,-63.6 16.5,-20.65 16.5,-20.65 16.5,-18.01 44.51,-15.87 79,-15.87 113.49,-15.87 141.5,-18.01 141.5,-20.65 141.5,-20.65 141.5,-63.6 141.5,-63.6"/>
<path fill="none" stroke="black" d="M141.5,-63.6C141.5,-60.97 113.49,-58.83 79,-58.83 44.51,-58.83 16.5,-60.97 16.5,-63.6"/>
<text text-anchor="middle" x="79" y="-45.92" font-family="Times,serif" font-size="14.00">GSettings</text>
<text text-anchor="middle" x="79" y="-30.93" font-family="Times,serif" font-size="14.00">(Configuration)</text>
</g>
<!-- UniversalCalendarApplet&#45;&gt;GSettings -->
<g id="edge10" class="edge">
<title>UniversalCalendarApplet&#45;&gt;GSettings</title>
<path fill="none" stroke="black" d="M228.55,-260.36C168.89,-249.33 103.51,-232.41 85,-209.25 55.6,-172.47 61.24,-115.09 69.2,-78.31"/>
<polygon fill="black" stroke="black" points="72.62,-79.05 71.47,-68.52 65.8,-77.46 72.62,-79.05"/>
<text text-anchor="middle" x="122" y="-155.55" font-family="Times,serif" font-size="14.00">Load/Save</text>
</g>
<!-- CinnamonCalendarServer -->
<g id="node6" class="node">
<title>CinnamonCalendarServer</title>
<path fill="lightblue" stroke="black" d="M560,-63.6C560,-66.24 513.83,-68.38 457,-68.38 400.17,-68.38 354,-66.24 354,-63.6 354,-63.6 354,-20.65 354,-20.65 354,-18.01 400.17,-15.87 457,-15.87 513.83,-15.87 560,-18.01 560,-20.65 560,-20.65 560,-63.6 560,-63.6"/>
<path fill="none" stroke="black" d="M560,-63.6C560,-60.97 513.83,-58.83 457,-58.83 400.17,-58.83 354,-60.97 354,-63.6"/>
<text text-anchor="middle" x="457" y="-45.92" font-family="Times,serif" font-size="14.00">Cinnamon CalendarServer</text>
<text text-anchor="middle" x="457" y="-30.93" font-family="Times,serif" font-size="14.00">(DBus)</text>
</g>
<!-- EventManager&#45;&gt;CinnamonCalendarServer -->
<g id="edge5" class="edge">
<title>EventManager&#45;&gt;CinnamonCalendarServer</title>
<path fill="none" stroke="black" d="M411.56,-140.01C419.36,-123.37 431.1,-98.33 440.7,-77.88"/>
<polygon fill="black" stroke="black" points="443.99,-79.1 445.07,-68.56 437.65,-76.13 443.99,-79.1"/>
<text text-anchor="middle" x="471" y="-111.05" font-family="Times,serif" font-size="14.00">DBus (Read)</text>
</g>
<!-- EvolutionDataServer -->
<g id="node7" class="node">
<title>EvolutionDataServer</title>
<path fill="lightblue" stroke="black" d="M336,-63.6C336,-66.24 296.56,-68.38 248,-68.38 199.44,-68.38 160,-66.24 160,-63.6 160,-63.6 160,-20.65 160,-20.65 160,-18.01 199.44,-15.87 248,-15.87 296.56,-15.87 336,-18.01 336,-20.65 336,-20.65 336,-63.6 336,-63.6"/>
<path fill="none" stroke="black" d="M336,-63.6C336,-60.97 296.56,-58.83 248,-58.83 199.44,-58.83 160,-60.97 160,-63.6"/>
<text text-anchor="middle" x="248" y="-45.92" font-family="Times,serif" font-size="14.00">Evolution Data Server</text>
<text text-anchor="middle" x="248" y="-30.93" font-family="Times,serif" font-size="14.00">(EDS)</text>
</g>
<!-- EventManager&#45;&gt;EvolutionDataServer -->
<g id="edge6" class="edge">
<title>EventManager&#45;&gt;EvolutionDataServer</title>
<path fill="none" stroke="black" d="M346.19,-140.15C334.98,-135.26 323.7,-129.32 314,-122.25 297.05,-109.89 281.78,-92.25 270.2,-76.76"/>
<polygon fill="black" stroke="black" points="272.87,-74.47 264.17,-68.42 267.2,-78.57 272.87,-74.47"/>
<text text-anchor="middle" x="365" y="-111.05" font-family="Times,serif" font-size="14.00">libecal (Write)</text>
</g>
<!-- CalendarLogic&#45;&gt;UniversalCalendarApplet -->
<g id="edge9" class="edge">
<title>CalendarLogic&#45;&gt;UniversalCalendarApplet</title>
<path fill="none" stroke="black" d="M227.13,-178.33C219.34,-193.88 211.99,-216.27 223,-232.25 228.01,-239.52 234.4,-245.59 241.59,-250.65"/>
<polygon fill="black" stroke="black" points="240.04,-253.81 250.37,-256.15 243.75,-247.88 240.04,-253.81"/>
<text text-anchor="middle" x="270" y="-221.05" font-family="Times,serif" font-size="14.00">Holiday Data</text>
</g>
<!-- CalendarView&#45;&gt;EventManager -->
<g id="edge7" class="edge">
<title>CalendarView&#45;&gt;EventManager</title>
<path fill="none" stroke="black" d="M516.84,-259.23C479.49,-248.18 437.35,-235.26 434,-232.25 421.26,-220.78 413.55,-203.17 409.01,-188.24"/>
<polygon fill="black" stroke="black" points="412.35,-187.17 406.35,-178.44 405.59,-189.01 412.35,-187.17"/>
<text text-anchor="middle" x="481" y="-221.05" font-family="Times,serif" font-size="14.00">Fetch Events</text>
</g>
<!-- CalendarView&#45;&gt;EventListView -->
<g id="edge11" class="edge">
<title>CalendarView&#45;&gt;EventListView</title>
<path fill="none" stroke="black" d="M550.64,-257.97C538.2,-246.41 527.33,-231.06 536,-217.25 547.12,-199.53 565.48,-187.19 584.43,-178.64"/>
<polygon fill="black" stroke="black" points="585.88,-181.83 593.76,-174.74 583.18,-175.37 585.88,-181.83"/>
<text text-anchor="middle" x="594.5" y="-221.05" font-family="Times,serif" font-size="14.00">Date Navigation</text>
</g>
<!-- EventListView&#45;&gt;EventManager -->
<g id="edge8" class="edge">
<title>EventListView&#45;&gt;EventManager</title>
<path fill="none" stroke="black" d="M593.96,-159.25C563.77,-159.25 526.57,-159.25 493.04,-159.25"/>
<polygon fill="black" stroke="black" points="492.76,-155.75 482.76,-159.25 492.76,-162.75 492.76,-155.75"/>
<text text-anchor="middle" x="538.25" y="-166.05" font-family="Times,serif" font-size="14.00">Fetch Events</text>
</g>
<!-- EventListView&#45;&gt;CalendarView -->
<g id="edge12" class="edge">
<title>EventListView&#45;&gt;CalendarView</title>
<path fill="none" stroke="black" d="M658.5,-178.46C661.26,-193.89 662.64,-216.02 653,-232.25 648.22,-240.29 641.37,-246.98 633.7,-252.5"/>
<polygon fill="black" stroke="black" points="631.6,-249.69 625.1,-258.05 635.4,-255.57 631.6,-249.69"/>
<text text-anchor="middle" x="699" y="-221.05" font-family="Times,serif" font-size="14.00">Event Click</text>
</g>
</g>
</svg>
